<svg class="plot a0b7fe0f8" fill="#94B3B3" text-anchor="middle" width="640" height="400" viewBox="0 0 640 400" style="overflow: visible;" xmlns="http://www.w3.org/2000/svg" xmlns:xlink="http://www.w3.org/1999/xlink"><g transform="translate(40,0)" fill="none" text-anchor="end"><g class="tick" opacity="1" transform="translate(0,370)"><line stroke="#94B3B3" x2="-6"/><text fill="#94B3B3" x="-9" dy="0.32em">0</text></g><g class="tick" opacity="1" transform="translate(0,333.5416666666667)"><line stroke="#94B3B3" x2="-6"/><text fill="#94B3B3" x="-9" dy="0.32em">50</text></g><g class="tick" opacity="1" transform="translate(0,297.0833333333333)"><line stroke="#94B3B3" x2="-6"/><text fill="#94B3B3" x="-9" dy="0.32em">100</text></g><g class="tick" opacity="1" transform="translate(0,260.625)"><line stroke="#94B3B3" x2="-6"/><text fill="#94B3B3" x="-9" dy="0.32em">150</text></g><g class="tick" opacity="1" transform="translate(0,224.16666666666666)"><line stroke="#94B3B3" x2="-6"/><text fill="#94B3B3" x="-9" dy="0.32em">200</text></g><g class="tick" opacity="1" transform="translate(0,187.70833333333331)"><line stroke="#94B3B3" x2="-6"/><text fill="#94B3B3" x="-9" dy="0.32em">250</text></g><g class="tick" opacity="1" transform="translate(0,151.25)"><line stroke="#94B3B3" x2="-6"/><text fill="#94B3B3" x="-9" dy="0.32em">300</text></g><g class="tick" opacity="1" transform="translate(0,114.79166666666667)"><line stroke="#94B3B3" x2="-6"/><text fill="#94B3B3" x="-9" dy="0.32em">350</text></g><g class="tick" opacity="1" transform="translate(0,78.33333333333331)"><line stroke="#94B3B3" x2="-6"/><text fill="#94B3B3" x="-9" dy="0.32em">400</text></g><g class="tick" opacity="1" transform="translate(0,41.875)"><line stroke="#94B3B3" x2="-6"/><text fill="#94B3B3" x="-9" dy="0.32em">450</text></g><text fill="#94B3B3" transform="translate(-40,20)" dy="-1em" text-anchor="start">↑ Frequency</text></g><g transform="translate(0,370)" fill="none" text-anchor="middle"><g class="tick" opacity="1" transform="translate(47.10204081632653,0)"><line stroke="#94B3B3" y2="6"/><text fill="#94B3B3" y="9" dy="0.71em">2020</text></g><g class="tick" opacity="1" transform="translate(120.48979591836735,0)"><line stroke="#94B3B3" y2="6"/><text fill="#94B3B3" y="9" dy="0.71em">February</text></g><g class="tick" opacity="1" transform="translate(189.14285714285714,0)"><line stroke="#94B3B3" y2="6"/><text fill="#94B3B3" y="9" dy="0.71em">March</text></g><g class="tick" opacity="1" transform="translate(262.53061224489795,0)"><line stroke="#94B3B3" y2="6"/><text fill="#94B3B3" y="9" dy="0.71em">April</text></g><g class="tick" opacity="1" transform="translate(333.55102040816325,0)"><line stroke="#94B3B3" y2="6"/><text fill="#94B3B3" y="9" dy="0.71em">May</text></g><g class="tick" opacity="1" transform="translate(406.9387755102041,0)"><line stroke="#94B3B3" y2="6"/><text fill="#94B3B3" y="9" dy="0.71em">June</text></g><g class="tick" opacity="1" transform="translate(477.95918367346934,0)"><line stroke="#94B3B3" y2="6"/><text fill="#94B3B3" y="9" dy="0.71em">July</text></g><g class="tick" opacity="1" transform="translate(551.3469387755101,0)"><line stroke="#94B3B3" y2="6"/><text fill="#94B3B3" y="9" dy="0.71em">August</text></g><text fill="#94B3B3" transform="translate(640,30)" dy="-0.32em" text-anchor="end">CRASH DATE →</text></g><g fill="#94b3b3"><rect x="190.14285714285714" y="20" width="15.571428571428584" height="350" __title="480 rows" class="has-title"/><rect x="554.7142857142857" y="227.08333333333331" width="15.571428571428669" height="142.91666666666669" __title="196 rows" class="has-title"/><rect x="538.1428571428571" y="235.10416666666666" width="15.571428571428555" height="134.89583333333334" __title="185 rows" class="has-title"/><rect x="521.5714285714287" y="245.31250000000003" width="15.571428571428442" height="124.68749999999997" __title="171 rows" class="has-title"/><rect x="505" y="235.10416666666666" width="15.571428571428669" height="134.89583333333334" __title="185 rows" class="has-title"/><rect x="471.8571428571429" y="231.45833333333334" width="15.571428571428612" height="138.54166666666666" __title="190 rows" class="has-title"/><rect x="455.28571428571433" y="242.39583333333334" width="15.571428571428555" height="127.60416666666666" __title="175 rows" class="has-title"/><rect x="422.14285714285717" y="255.52083333333331" width="15.571428571428555" height="114.47916666666669" __title="157 rows" class="has-title"/><rect x="405.57142857142856" y="280.3125" width="15.571428571428612" height="89.6875" __title="123 rows" class="has-title"/><rect x="372.42857142857144" y="282.5" width="15.571428571428555" height="87.5" __title="120 rows" class="has-title"/><rect x="339.2857142857143" y="310.2083333333333" width="15.571428571428555" height="59.791666666666686" __title="82 rows" class="has-title"/><rect x="306.14285714285717" y="326.97916666666663" width="15.571428571428555" height="43.02083333333337" __title="59 rows" class="has-title"/><rect x="273" y="334.27083333333337" width="15.571428571428555" height="35.72916666666663" __title="49 rows" class="has-title"/><rect x="256.42857142857144" y="319.6875" width="15.571428571428555" height="50.3125" __title="69 rows" class="has-title"/><rect x="223.28571428571428" y="234.37500000000003" width="15.571428571428584" height="135.62499999999997" __title="186 rows" class="has-title"/><rect x="173.57142857142858" y="79.79166666666666" width="15.571428571428555" height="290.20833333333337" __title="398 rows" class="has-title"/><rect x="157" y="112.60416666666664" width="15.571428571428584" height="257.39583333333337" __title="353 rows" class="has-title"/><rect x="140.42857142857144" y="79.79166666666666" width="15.571428571428555" height="290.20833333333337" __title="398 rows" class="has-title"/><rect x="123.85714285714286" y="63.02083333333334" width="15.571428571428584" height="306.97916666666663" __title="421 rows" class="has-title"/><rect x="107.28571428571429" y="84.89583333333334" width="15.57142857142857" height="285.10416666666663" __title="391 rows" class="has-title"/><rect x="90.71428571428572" y="76.875" width="15.57142857142857" height="293.125" __title="402 rows" class="has-title"/><rect x="206.71428571428572" y="94.37500000000001" width="15.571428571428555" height="275.625" __title="378 rows" class="has-title"/><rect x="355.85714285714283" y="282.5" width="15.571428571428612" height="87.5" __title="120 rows" class="has-title"/><rect x="389" y="290.52083333333337" width="15.571428571428555" height="79.47916666666663" __title="109 rows" class="has-title"/><rect x="41" y="262.8125" width="15.57142857142857" height="107.1875" __title="147 rows" class="has-title"/><rect x="57.57142857142857" y="139.58333333333334" width="15.57142857142857" height="230.41666666666666" __title="316 rows" class="has-title"/><rect x="74.14285714285714" y="100.93749999999999" width="15.571428571428584" height="269.0625" __title="369 rows" class="has-title"/><rect x="239.85714285714286" y="282.5" width="15.571428571428584" height="87.5" __title="120 rows" class="has-title"/><rect x="289.57142857142856" y="326.97916666666663" width="15.571428571428612" height="43.02083333333337" __title="59 rows" class="has-title"/><rect x="322.7142857142857" y="308.0208333333333" width="15.571428571428555" height="61.979166666666686" __title="85 rows" class="has-title"/><rect x="438.7142857142857" y="255.52083333333331" width="15.571428571428612" height="114.47916666666669" __title="157 rows" class="has-title"/><rect x="488.4285714285715" y="245.31250000000003" width="15.571428571428498" height="124.68749999999997" __title="171 rows" class="has-title"/><rect x="571.2857142857143" y="240.20833333333331" width="15.571428571428555" height="129.79166666666669" __title="178 rows" class="has-title"/><rect x="587.8571428571429" y="228.54166666666669" width="15.571428571428555" height="141.45833333333331" __title="194 rows" class="has-title"/><rect x="604.4285714285714" y="253.33333333333334" width="15.571428571428555" height="116.66666666666666" __title="160 rows" class="has-title"/></g><g class="hover" transform="translate(193, 159.5416717529297)" style="pointer-events: none; text-anchor: middle;"/><style xmlns="http://www.w3.org/1999/xhtml">
      .a0b7fe0f8 .has-title {
       cursor: pointer; 
       pointer-events: all;
      }
      .a0b7fe0f8 .has-title:hover {
        fill:#EEF91A;opacity:1;
    }
    </style></svg>