<svg class="plot a7e1efca2" fill="currentColor" text-anchor="middle" width="800" height="800" viewBox="0 0 800 800" style="overflow: visible;" xmlns="http://www.w3.org/2000/svg" xmlns:xlink="http://www.w3.org/1999/xlink"><g transform="translate(40,0)" fill="none" text-anchor="end"><g class="tick" opacity="1" transform="translate(0,770)"><line stroke="currentColor" x2="-6"/><text fill="currentColor" x="-9" dy="0.32em">0</text></g><g class="tick" opacity="1" transform="translate(0,738.7500000000001)"><line stroke="currentColor" x2="-6"/><text fill="currentColor" x="-9" dy="0.32em">20</text></g><g class="tick" opacity="1" transform="translate(0,707.4999999999999)"><line stroke="currentColor" x2="-6"/><text fill="currentColor" x="-9" dy="0.32em">40</text></g><g class="tick" opacity="1" transform="translate(0,676.25)"><line stroke="currentColor" x2="-6"/><text fill="currentColor" x="-9" dy="0.32em">60</text></g><g class="tick" opacity="1" transform="translate(0,645.0000000000001)"><line stroke="currentColor" x2="-6"/><text fill="currentColor" x="-9" dy="0.32em">80</text></g><g class="tick" opacity="1" transform="translate(0,613.7499999999999)"><line stroke="currentColor" x2="-6"/><text fill="currentColor" x="-9" dy="0.32em">100</text></g><g class="tick" opacity="1" transform="translate(0,582.5)"><line stroke="currentColor" x2="-6"/><text fill="currentColor" x="-9" dy="0.32em">120</text></g><g class="tick" opacity="1" transform="translate(0,551.25)"><line stroke="currentColor" x2="-6"/><text fill="currentColor" x="-9" dy="0.32em">140</text></g><g class="tick" opacity="1" transform="translate(0,520)"><line stroke="currentColor" x2="-6"/><text fill="currentColor" x="-9" dy="0.32em">160</text></g><g class="tick" opacity="1" transform="translate(0,488.75)"><line stroke="currentColor" x2="-6"/><text fill="currentColor" x="-9" dy="0.32em">180</text></g><g class="tick" opacity="1" transform="translate(0,457.49999999999994)"><line stroke="currentColor" x2="-6"/><text fill="currentColor" x="-9" dy="0.32em">200</text></g><g class="tick" opacity="1" transform="translate(0,426.25000000000006)"><line stroke="currentColor" x2="-6"/><text fill="currentColor" x="-9" dy="0.32em">220</text></g><g class="tick" opacity="1" transform="translate(0,395)"><line stroke="currentColor" x2="-6"/><text fill="currentColor" x="-9" dy="0.32em">240</text></g><g class="tick" opacity="1" transform="translate(0,363.75)"><line stroke="currentColor" x2="-6"/><text fill="currentColor" x="-9" dy="0.32em">260</text></g><g class="tick" opacity="1" transform="translate(0,332.5)"><line stroke="currentColor" x2="-6"/><text fill="currentColor" x="-9" dy="0.32em">280</text></g><g class="tick" opacity="1" transform="translate(0,301.25)"><line stroke="currentColor" x2="-6"/><text fill="currentColor" x="-9" dy="0.32em">300</text></g><g class="tick" opacity="1" transform="translate(0,270)"><line stroke="currentColor" x2="-6"/><text fill="currentColor" x="-9" dy="0.32em">320</text></g><g class="tick" opacity="1" transform="translate(0,238.74999999999997)"><line stroke="currentColor" x2="-6"/><text fill="currentColor" x="-9" dy="0.32em">340</text></g><g class="tick" opacity="1" transform="translate(0,207.5)"><line stroke="currentColor" x2="-6"/><text fill="currentColor" x="-9" dy="0.32em">360</text></g><g class="tick" opacity="1" transform="translate(0,176.25000000000003)"><line stroke="currentColor" x2="-6"/><text fill="currentColor" x="-9" dy="0.32em">380</text></g><g class="tick" opacity="1" transform="translate(0,144.99999999999997)"><line stroke="currentColor" x2="-6"/><text fill="currentColor" x="-9" dy="0.32em">400</text></g><g class="tick" opacity="1" transform="translate(0,113.75)"><line stroke="currentColor" x2="-6"/><text fill="currentColor" x="-9" dy="0.32em">420</text></g><g class="tick" opacity="1" transform="translate(0,82.50000000000003)"><line stroke="currentColor" x2="-6"/><text fill="currentColor" x="-9" dy="0.32em">440</text></g><g class="tick" opacity="1" transform="translate(0,51.24999999999997)"><line stroke="currentColor" x2="-6"/><text fill="currentColor" x="-9" dy="0.32em">460</text></g><g class="tick" opacity="1" transform="translate(0,20)"><line stroke="currentColor" x2="-6"/><text fill="currentColor" x="-9" dy="0.32em">480</text></g><text fill="currentColor" transform="translate(-40,20)" dy="-1em" text-anchor="start">↑ Frequency</text></g><g transform="translate(0,770)" fill="none" text-anchor="middle"><g class="tick" opacity="1" transform="translate(49.06122448979592,0)"><line stroke="currentColor" y2="6"/><text fill="currentColor" y="9" dy="0.71em">2020</text></g><g class="tick" opacity="1" transform="translate(142.69387755102042,0)"><line stroke="currentColor" y2="6"/><text fill="currentColor" y="9" dy="0.71em">February</text></g><g class="tick" opacity="1" transform="translate(230.28571428571428,0)"><line stroke="currentColor" y2="6"/><text fill="currentColor" y="9" dy="0.71em">March</text></g><g class="tick" opacity="1" transform="translate(323.9183673469388,0)"><line stroke="currentColor" y2="6"/><text fill="currentColor" y="9" dy="0.71em">April</text></g><g class="tick" opacity="1" transform="translate(414.53061224489795,0)"><line stroke="currentColor" y2="6"/><text fill="currentColor" y="9" dy="0.71em">May</text></g><g class="tick" opacity="1" transform="translate(508.16326530612247,0)"><line stroke="currentColor" y2="6"/><text fill="currentColor" y="9" dy="0.71em">June</text></g><g class="tick" opacity="1" transform="translate(598.7755102040817,0)"><line stroke="currentColor" y2="6"/><text fill="currentColor" y="9" dy="0.71em">July</text></g><g class="tick" opacity="1" transform="translate(692.4081632653061,0)"><line stroke="currentColor" y2="6"/><text fill="currentColor" y="9" dy="0.71em">August</text></g><text fill="currentColor" transform="translate(800,30)" dy="-0.32em" text-anchor="end">CRASH DATE →</text></g><g><rect x="104.42857142857143" y="141.875" width="20.14285714285714" height="628.125" __title="402 rows" class="has-title"/><rect x="125.57142857142857" y="159.0625" width="20.142857142857153" height="610.9375" __title="391 rows" class="has-title"/><rect x="146.71428571428572" y="112.18750000000001" width="20.14285714285714" height="657.8125" __title="421 rows" class="has-title"/><rect x="167.85714285714286" y="148.12499999999997" width="20.14285714285714" height="621.875" __title="398 rows" class="has-title"/><rect x="41" y="540.3125" width="20.14285714285714" height="229.6875" __title="147 rows" class="has-title"/><rect x="62.14285714285714" y="276.25" width="20.14285714285714" height="493.75" __title="316 rows" class="has-title"/><rect x="83.28571428571428" y="193.43749999999997" width="20.142857142857153" height="576.5625" __title="369 rows" class="has-title"/><rect x="189" y="218.43749999999997" width="20.14285714285714" height="551.5625" __title="353 rows" class="has-title"/><rect x="210.14285714285714" y="148.12499999999997" width="20.14285714285714" height="621.875" __title="398 rows" class="has-title"/><rect x="231.28571428571428" y="20" width="20.14285714285714" height="750" __title="480 rows" class="has-title"/><rect x="252.42857142857142" y="179.37500000000003" width="20.14285714285714" height="590.625" __title="378 rows" class="has-title"/><rect x="273.57142857142856" y="479.37500000000006" width="20.142857142857167" height="290.62499999999994" __title="186 rows" class="has-title"/><rect x="294.7142857142857" y="582.5" width="20.142857142857167" height="187.5" __title="120 rows" class="has-title"/><rect x="315.8571428571429" y="662.1875" width="20.14285714285711" height="107.8125" __title="69 rows" class="has-title"/><rect x="337" y="693.4375" width="20.14285714285711" height="76.5625" __title="49 rows" class="has-title"/><rect x="358.1428571428571" y="677.8125" width="20.142857142857167" height="92.1875" __title="59 rows" class="has-title"/><rect x="379.2857142857143" y="677.8125" width="20.14285714285711" height="92.1875" __title="59 rows" class="has-title"/><rect x="400.4285714285714" y="637.1874999999999" width="20.142857142857167" height="132.8125000000001" __title="85 rows" class="has-title"/><rect x="421.57142857142856" y="641.8749999999999" width="20.14285714285711" height="128.1250000000001" __title="82 rows" class="has-title"/><rect x="442.71428571428567" y="582.5" width="20.142857142857167" height="187.5" __title="120 rows" class="has-title"/><rect x="463.85714285714283" y="582.5" width="20.142857142857167" height="187.5" __title="120 rows" class="has-title"/><rect x="485" y="599.6875" width="20.14285714285711" height="170.3125" __title="109 rows" class="has-title"/><rect x="506.1428571428571" y="577.8125" width="20.14285714285711" height="192.1875" __title="123 rows" class="has-title"/><rect x="527.2857142857142" y="524.6874999999999" width="20.142857142857224" height="245.3125000000001" __title="157 rows" class="has-title"/><rect x="548.4285714285714" y="524.6874999999999" width="20.14285714285711" height="245.3125000000001" __title="157 rows" class="has-title"/><rect x="569.5714285714286" y="496.56250000000006" width="20.142857142857224" height="273.43749999999994" __title="175 rows" class="has-title"/><rect x="590.7142857142858" y="473.12500000000006" width="20.14285714285711" height="296.87499999999994" __title="190 rows" class="has-title"/><rect x="611.8571428571429" y="502.81250000000006" width="20.14285714285711" height="267.18749999999994" __title="171 rows" class="has-title"/><rect x="633" y="480.93749999999994" width="20.142857142857224" height="289.06250000000006" __title="185 rows" class="has-title"/><rect x="654.1428571428572" y="502.81250000000006" width="20.142857142856997" height="267.18749999999994" __title="171 rows" class="has-title"/><rect x="675.2857142857142" y="480.93749999999994" width="20.14285714285711" height="289.06250000000006" __title="185 rows" class="has-title"/><rect x="696.4285714285713" y="463.75" width="20.142857142857224" height="306.25" __title="196 rows" class="has-title"/><rect x="717.5714285714286" y="491.875" width="20.142857142857224" height="278.125" __title="178 rows" class="has-title"/><rect x="738.7142857142858" y="466.875" width="20.142857142856997" height="303.125" __title="194 rows" class="has-title"/><rect x="759.8571428571428" y="520" width="20.142857142857224" height="250" __title="160 rows" class="has-title"/></g><g class="hover" transform="translate(110, 197.125)" style="pointer-events: none; text-anchor: middle;"/><style xmlns="http://www.w3.org/1999/xhtml">
      .a7e1efca2 .has-title {
       cursor: pointer; 
       pointer-events: all;
      }
      .a7e1efca2 .has-title:hover {
        fill:blue;opacity:0.5;
    }
    </style></svg>