<svg class="plot a2fef0ef3" fill="currentColor" text-anchor="middle" width="500" height="500" viewBox="0 0 500 500" style="overflow: visible;" xmlns="http://www.w3.org/2000/svg" xmlns:xlink="http://www.w3.org/1999/xlink"><g transform="translate(40,0)" fill="none" text-anchor="end"><g class="tick" opacity="1" transform="translate(0,470)"><line stroke="currentColor" x2="-6"/><text fill="currentColor" x="-9" dy="0.32em">0</text></g><g class="tick" opacity="1" transform="translate(0,423.8934426229508)"><line stroke="currentColor" x2="-6"/><text fill="currentColor" x="-9" dy="0.32em">50</text></g><g class="tick" opacity="1" transform="translate(0,377.7868852459016)"><line stroke="currentColor" x2="-6"/><text fill="currentColor" x="-9" dy="0.32em">100</text></g><g class="tick" opacity="1" transform="translate(0,331.6803278688525)"><line stroke="currentColor" x2="-6"/><text fill="currentColor" x="-9" dy="0.32em">150</text></g><g class="tick" opacity="1" transform="translate(0,285.57377049180326)"><line stroke="currentColor" x2="-6"/><text fill="currentColor" x="-9" dy="0.32em">200</text></g><g class="tick" opacity="1" transform="translate(0,239.46721311475412)"><line stroke="currentColor" x2="-6"/><text fill="currentColor" x="-9" dy="0.32em">250</text></g><g class="tick" opacity="1" transform="translate(0,193.36065573770492)"><line stroke="currentColor" x2="-6"/><text fill="currentColor" x="-9" dy="0.32em">300</text></g><g class="tick" opacity="1" transform="translate(0,147.25409836065575)"><line stroke="currentColor" x2="-6"/><text fill="currentColor" x="-9" dy="0.32em">350</text></g><g class="tick" opacity="1" transform="translate(0,101.14754098360655)"><line stroke="currentColor" x2="-6"/><text fill="currentColor" x="-9" dy="0.32em">400</text></g><g class="tick" opacity="1" transform="translate(0,55.04098360655739)"><line stroke="currentColor" x2="-6"/><text fill="currentColor" x="-9" dy="0.32em">450</text></g><text fill="currentColor" transform="translate(-40,20)" dy="-1em" text-anchor="start">↑ Frequency</text></g><g transform="translate(0,470)" fill="none" text-anchor="middle"><g class="tick" opacity="1" transform="translate(40,0)"><line stroke="currentColor" y2="6"/><text fill="currentColor" y="9" dy="0.71em">0</text></g><g class="tick" opacity="1" transform="translate(131.66666666666666,0)"><line stroke="currentColor" y2="6"/><text fill="currentColor" y="9" dy="0.71em">5</text></g><g class="tick" opacity="1" transform="translate(223.33333333333331,0)"><line stroke="currentColor" y2="6"/><text fill="currentColor" y="9" dy="0.71em">10</text></g><g class="tick" opacity="1" transform="translate(315,0)"><line stroke="currentColor" y2="6"/><text fill="currentColor" y="9" dy="0.71em">15</text></g><g class="tick" opacity="1" transform="translate(406.6666666666667,0)"><line stroke="currentColor" y2="6"/><text fill="currentColor" y="9" dy="0.71em">20</text></g><text fill="currentColor" transform="translate(500,30)" dy="-0.32em" text-anchor="end">time →</text></g><g><rect x="114.33333333333334" y="372.2540983606558" width="17.333333333333314" height="97.7459016393442" __title="106 rows" class="has-title"/><rect x="132.66666666666666" y="378.7090163934426" width="17.333333333333343" height="91.2909836065574" __title="99 rows" class="has-title"/><rect x="151" y="311.3934426229508" width="17.333333333333314" height="158.60655737704923" __title="172 rows" class="has-title"/><rect x="169.33333333333331" y="245.92213114754097" width="17.33333333333337" height="224.07786885245903" __title="243 rows" class="has-title"/><rect x="187.66666666666669" y="103.91393442622952" width="17.333333333333314" height="366.0860655737705" __title="397 rows" class="has-title"/><rect x="279.3333333333333" y="86.39344262295084" width="17.33333333333337" height="383.60655737704917" __title="416 rows" class="has-title"/><rect x="297.6666666666667" y="20" width="17.333333333333314" height="450" __title="488 rows" class="has-title"/><rect x="261" y="49.508196721311464" width="17.333333333333314" height="420.4918032786885" __title="456 rows" class="has-title"/><rect x="242.66666666666669" y="41.20901639344261" width="17.333333333333314" height="428.7909836065574" __title="465 rows" class="has-title"/><rect x="224.33333333333331" y="93.77049180327867" width="17.33333333333337" height="376.2295081967213" __title="408 rows" class="has-title"/><rect x="206" y="127.88934426229508" width="17.333333333333314" height="342.1106557377049" __title="371 rows" class="has-title"/><rect x="352.6666666666667" y="51.35245901639345" width="17.333333333333314" height="418.6475409836065" __title="454 rows" class="has-title"/><rect x="389.3333333333333" y="170.3073770491803" width="17.33333333333337" height="299.69262295081967" __title="325 rows" class="has-title"/><rect x="426" y="238.5450819672131" width="17.333333333333314" height="231.4549180327869" __title="251 rows" class="has-title"/><rect x="444.3333333333333" y="229.3237704918033" width="17.33333333333337" height="240.6762295081967" __title="261 rows" class="has-title"/><rect x="462.6666666666667" y="288.34016393442624" width="17.333333333333314" height="181.65983606557376" __title="197 rows" class="has-title"/><rect x="371" y="71.63934426229508" width="17.333333333333314" height="398.3606557377049" __title="432 rows" class="has-title"/><rect x="334.3333333333333" y="40.28688524590164" width="17.33333333333337" height="429.71311475409834" __title="466 rows" class="has-title"/><rect x="316" y="40.28688524590164" width="17.333333333333314" height="429.71311475409834" __title="466 rows" class="has-title"/><rect x="41" y="250.53278688524594" width="17.333333333333336" height="219.46721311475406" __title="238 rows" class="has-title"/><rect x="59.333333333333336" y="337.2131147540984" width="17.33333333333332" height="132.7868852459016" __title="144 rows" class="has-title"/><rect x="77.66666666666666" y="376.86475409836066" width="17.333333333333343" height="93.13524590163934" __title="101 rows" class="has-title"/><rect x="96" y="387.00819672131144" width="17.333333333333343" height="82.99180327868856" __title="90 rows" class="has-title"/><rect x="407.6666666666667" y="186.90573770491807" width="17.333333333333314" height="283.09426229508193" __title="307 rows" class="has-title"/></g><g class="hover" transform="translate(130, 383.5249938964844)" style="pointer-events: none; text-anchor: middle;"/><style xmlns="http://www.w3.org/1999/xhtml">
      .a2fef0ef3 .has-title {
       cursor: pointer; 
       pointer-events: all;
      }
      .a2fef0ef3 .has-title:hover {
        fill:blue;opacity:0.5;
    }
    </style></svg>