<svg class="plot a41bd75d8" fill="#94B3B3" text-anchor="middle" width="640" height="400" viewBox="0 0 640 400" style="overflow: visible;" xmlns="http://www.w3.org/2000/svg" xmlns:xlink="http://www.w3.org/1999/xlink"><g transform="translate(40,0)" fill="none" text-anchor="end"><g class="tick" opacity="1" transform="translate(0,370)"><line stroke="#94B3B3" x2="-6"/><text fill="#94B3B3" x="-9" dy="0.32em">0</text></g><g class="tick" opacity="1" transform="translate(0,334.139344262295)"><line stroke="#94B3B3" x2="-6"/><text fill="#94B3B3" x="-9" dy="0.32em">50</text></g><g class="tick" opacity="1" transform="translate(0,298.2786885245901)"><line stroke="#94B3B3" x2="-6"/><text fill="#94B3B3" x="-9" dy="0.32em">100</text></g><g class="tick" opacity="1" transform="translate(0,262.4180327868853)"><line stroke="#94B3B3" x2="-6"/><text fill="#94B3B3" x="-9" dy="0.32em">150</text></g><g class="tick" opacity="1" transform="translate(0,226.55737704918033)"><line stroke="#94B3B3" x2="-6"/><text fill="#94B3B3" x="-9" dy="0.32em">200</text></g><g class="tick" opacity="1" transform="translate(0,190.69672131147541)"><line stroke="#94B3B3" x2="-6"/><text fill="#94B3B3" x="-9" dy="0.32em">250</text></g><g class="tick" opacity="1" transform="translate(0,154.8360655737705)"><line stroke="#94B3B3" x2="-6"/><text fill="#94B3B3" x="-9" dy="0.32em">300</text></g><g class="tick" opacity="1" transform="translate(0,118.97540983606558)"><line stroke="#94B3B3" x2="-6"/><text fill="#94B3B3" x="-9" dy="0.32em">350</text></g><g class="tick" opacity="1" transform="translate(0,83.11475409836066)"><line stroke="#94B3B3" x2="-6"/><text fill="#94B3B3" x="-9" dy="0.32em">400</text></g><g class="tick" opacity="1" transform="translate(0,47.254098360655746)"><line stroke="#94B3B3" x2="-6"/><text fill="#94B3B3" x="-9" dy="0.32em">450</text></g><text fill="#94B3B3" transform="translate(-40,20)" dy="-1em" text-anchor="start">↑ Frequency</text></g><g transform="translate(0,370)" fill="none" text-anchor="middle"><g class="tick" opacity="1" transform="translate(40,0)"><line stroke="#94B3B3" y2="6"/><text fill="#94B3B3" y="9" dy="0.71em">0</text></g><g class="tick" opacity="1" transform="translate(160.83333333333334,0)"><line stroke="#94B3B3" y2="6"/><text fill="#94B3B3" y="9" dy="0.71em">5</text></g><g class="tick" opacity="1" transform="translate(281.6666666666667,0)"><line stroke="#94B3B3" y2="6"/><text fill="#94B3B3" y="9" dy="0.71em">10</text></g><g class="tick" opacity="1" transform="translate(402.5,0)"><line stroke="#94B3B3" y2="6"/><text fill="#94B3B3" y="9" dy="0.71em">15</text></g><g class="tick" opacity="1" transform="translate(523.3333333333334,0)"><line stroke="#94B3B3" y2="6"/><text fill="#94B3B3" y="9" dy="0.71em">20</text></g><text fill="#94B3B3" transform="translate(640,30)" dy="-0.32em" text-anchor="end">time →</text></g><g fill="#94b3b3"><rect x="65.16666666666667" y="266.7213114754099" width="23.166666666666657" height="103.27868852459011" __title="144 rows" class="has-title"/><rect x="306.8333333333333" y="36.495901639344254" width="23.166666666666686" height="333.50409836065575" __title="465 rows" class="has-title"/><rect x="41" y="199.3032786885246" width="23.16666666666667" height="170.6967213114754" __title="238 rows" class="has-title"/><rect x="89.33333333333333" y="297.5614754098361" width="23.16666666666667" height="72.43852459016392" __title="101 rows" class="has-title"/><rect x="258.5" y="103.9139344262295" width="23.166666666666686" height="266.0860655737705" __title="371 rows" class="has-title"/><rect x="331" y="42.95081967213113" width="23.16666666666663" height="327.04918032786884" __title="456 rows" class="has-title"/><rect x="355.16666666666663" y="71.6393442622951" width="23.166666666666742" height="298.3606557377049" __title="416 rows" class="has-title"/><rect x="379.33333333333337" y="20" width="23.16666666666663" height="350" __title="488 rows" class="has-title"/><rect x="403.5" y="35.778688524590166" width="23.16666666666663" height="334.22131147540983" __title="466 rows" class="has-title"/><rect x="427.66666666666663" y="35.778688524590166" width="23.166666666666742" height="334.22131147540983" __title="466 rows" class="has-title"/><rect x="451.83333333333337" y="44.38524590163935" width="23.16666666666663" height="325.61475409836066" __title="454 rows" class="has-title"/><rect x="476" y="60.16393442622952" width="23.16666666666663" height="309.8360655737705" __title="432 rows" class="has-title"/><rect x="500.16666666666663" y="136.905737704918" width="23.166666666666742" height="233.094262295082" __title="325 rows" class="has-title"/><rect x="524.3333333333334" y="149.81557377049182" width="23.16666666666663" height="220.18442622950818" __title="307 rows" class="has-title"/><rect x="572.6666666666666" y="182.80737704918033" width="23.166666666666742" height="187.19262295081967" __title="261 rows" class="has-title"/><rect x="548.5" y="189.9795081967213" width="23.16666666666663" height="180.0204918032787" __title="251 rows" class="has-title"/><rect x="282.6666666666667" y="77.37704918032786" width="23.16666666666663" height="292.62295081967216" __title="408 rows" class="has-title"/><rect x="186" y="246.63934426229505" width="23.166666666666686" height="123.36065573770495" __title="172 rows" class="has-title"/><rect x="113.5" y="305.4508196721311" width="23.166666666666657" height="64.5491803278689" __title="90 rows" class="has-title"/><rect x="137.66666666666666" y="293.97540983606564" width="23.166666666666686" height="76.02459016393436" __title="106 rows" class="has-title"/><rect x="161.83333333333334" y="298.99590163934425" width="23.166666666666657" height="71.00409836065575" __title="99 rows" class="has-title"/><rect x="210.16666666666669" y="195.7172131147541" width="23.16666666666663" height="174.2827868852459" __title="243 rows" class="has-title"/><rect x="234.33333333333331" y="85.26639344262296" width="23.166666666666686" height="284.733606557377" __title="397 rows" class="has-title"/><rect x="596.8333333333334" y="228.70901639344265" width="23.16666666666663" height="141.29098360655735" __title="197 rows" class="has-title"/></g><g class="hover" transform="translate(72, 304.5416564941406)" style="pointer-events: none; text-anchor: middle;"/><style xmlns="http://www.w3.org/1999/xhtml">
      .a41bd75d8 .has-title {
       cursor: pointer; 
       pointer-events: all;
      }
      .a41bd75d8 .has-title:hover {
        fill:#EEF91A;opacity:1;
    }
    </style></svg>